<svg xmlns="http://www.w3.org/2000/svg" xmlns:xlink="http://www.w3.org/1999/xlink" width="49" height="51" viewBox="0 0 49 51"><defs><path id="x78pa" d="M650.855 7557.12c-6.303 12.02-21.059 16.603-32.959 10.238l-5.536 3.708a.952.952 0 0 1-.693.149.97.97 0 0 1-.787-1.12l1.019-7.319a24.755 24.755 0 0 1-6.915-17.186c.003-13.6 10.921-24.625 24.387-24.622 3.957.01 7.851.993 11.348 2.863 11.9 6.366 16.438 21.27 10.136 33.29zm-5.723-27.668a22.303 22.303 0 0 0-31.763.223c-8.71 8.921-8.61 23.285.222 32.082.216.215.32.521.278.825l-.836 5.64 4.335-2.844a.952.952 0 0 1 .96 0 22.298 22.298 0 0 0 11.043 2.912 22.35 22.35 0 0 0 15.983-6.757c8.71-8.92 8.61-23.284-.222-32.081zm-9.292 25.83v3.495c0 .536-.43.97-.962.97h-10.052a.966.966 0 0 1-.962-.97v-3.494c0-.537.43-.971.962-.971h.807v-9.882h-.807a.966.966 0 0 1-.962-.97v-3.495c0-.536.43-.971.962-.971h8.294c.53 0 .96.435.96.97v14.348h.799c.53 0 .96.434.96.97zm-10.053 2.524h8.13l-.01-1.553h-.797a.966.966 0 0 1-.961-.97v-14.348h-6.362v1.554h.807c.53 0 .961.434.961.97v11.824c0 .536-.43.97-.961.97h-.807zm7.611-24.229c0 2.247-1.802 4.067-4.027 4.067-2.224 0-4.026-1.82-4.026-4.067 0-2.246 1.802-4.067 4.026-4.067 2.224 0 4.027 1.82 4.027 4.067zm-1.922.01a2.115 2.115 0 0 0-2.105-2.126v-.01h-.01a2.116 2.116 0 0 0-2.094 2.136c0 1.174.942 2.126 2.104 2.126a2.115 2.115 0 0 0 2.105-2.126z"/></defs><g><g transform="translate(-605 -7521)"><use fill="#dd1d54" xlink:href="#x78pa"/></g></g></svg>