<svg xmlns="http://www.w3.org/2000/svg" xmlns:xlink="http://www.w3.org/1999/xlink" width="16" height="16" viewBox="0 0 16 16"><defs><path id="i4o6a" d="M921.654 7535.098c.513.516.51 1.148-.006 1.671-.349.352-.72.688-1.049 1.055-.48.539-1.081.713-1.772.674-1.003-.054-1.926-.387-2.817-.82a15.349 15.349 0 0 1-5.086-3.978c-1.049-1.244-1.914-2.603-2.482-4.132-.277-.74-.474-1.498-.413-2.3a1.87 1.87 0 0 1 .588-1.262c.393-.375.765-.765 1.152-1.146.503-.496 1.136-.496 1.642-.004.313.308.62.62.93.93.3.303.6.6.9.904.53.532.53 1.151.003 1.68-.377.382-.751.762-1.136 1.133-.1.1-.11.18-.058.303.255.607.62 1.146 1.03 1.649.826 1.013 1.759 1.914 2.872 2.613.239.148.503.259.752.394.126.071.213.049.316-.058.378-.387.762-.768 1.146-1.149.503-.5 1.136-.5 1.642 0 .617.614 1.233 1.226 1.846 1.843zm-3.61-6.634a4.116 4.116 0 0 0-2.35-1.17l.168-1.198a5.293 5.293 0 0 1 3.033 1.513 5.318 5.318 0 0 1 1.488 2.872l-1.19.203a4.105 4.105 0 0 0-1.15-2.22zm5.482 1.81l-1.19.204a7.605 7.605 0 0 0-2.134-4.114 7.616 7.616 0 0 0-4.35-2.169l.168-1.197a8.784 8.784 0 0 1 5.034 2.51 8.845 8.845 0 0 1 2.472 4.766z"/></defs><g><g transform="translate(-908 -7523)"><use fill="#1978ca" xlink:href="#i4o6a"/></g></g></svg>